<svg id="Capa_1" height="45" viewBox="0 0 45 45" width="45" xmlns="http://www.w3.org/2000/svg"><g><g><path d="m256 512c-111.167 0-195-38.687-195-90 0-72.075 141.635-86.295 144.639-87.261l50.361 75.279 50.361-75.278c3.001.964 144.639 15.108 144.639 87.26 0 51.313-83.833 90-195 90z" fill="#a0e65c"/></g><path d="m451 422c0-72.153-141.638-86.298-144.639-87.261l-50.361 75.279v101.982c111.167 0 195-38.687 195-90z" fill="#79cc52"/><g><path d="m256 463.982-137.285-205.561c-18.12-27.026-27.715-58.652-27.715-91.421 0-90.981 74.019-167 165-167s165 76.019 165 167c0 32.769-9.595 64.395-27.744 91.45z" fill="#ff7f40"/></g><path d="m393.256 258.45c18.149-27.055 27.744-58.681 27.744-91.45 0-90.981-74.019-167-165-167v463.982z" fill="#f25a3c"/><g id="_Location_2_"><g><path d="m211 255.022v-176.044l132.041 88.022z" fill="#ffe566"/></g></g><path d="m256 225.024 87.041-58.024-87.041-58.024z" fill="#ffbe40"/></g></svg>